<svg width="20" height="18" viewBox="0 0 20 18" fill="none" xmlns="http://www.w3.org/2000/svg">
<path fill-rule="evenodd" clip-rule="evenodd" d="M12.2143 18C12.5691 18 12.8571 17.712 12.8571 17.3571V12.8571C12.8571 11.6634 12.3827 10.5191 11.5393 9.675C10.6952 8.83093 9.55029 8.35714 8.35714 8.35714C7.11579 8.35714 5.74136 8.35714 4.5 8.35714C3.30686 8.35714 2.16193 8.83093 1.31786 9.675C0.474429 10.5191 0 11.6634 0 12.8571V17.3571C0 17.712 0.288 18 0.642857 18H12.2143ZM11.5714 16.7143V16.0714V15.1071V12.8571C11.5714 12.1018 11.3054 11.3737 10.8257 10.7981C10.7641 10.7241 10.6989 10.6527 10.6303 10.584C10.4683 10.4222 10.2908 10.2793 10.1012 10.157C9.58536 9.82405 8.98054 9.64286 8.35714 9.64286C7.11579 9.64286 5.74136 9.64286 4.5 9.64286C3.64757 9.64286 2.82986 9.98164 2.22686 10.584C1.6245 11.187 1.28571 12.0047 1.28571 12.8571V16.7143H11.5714ZM6.42857 0C4.30007 0 2.57143 1.72864 2.57143 3.85714C2.57143 5.98564 4.30007 7.71429 6.42857 7.71429C8.55707 7.71429 10.2857 5.98564 10.2857 3.85714C10.2857 1.72864 8.55707 0 6.42857 0ZM6.42857 1.28571C7.848 1.28571 9 2.43771 9 3.85714C9 5.27657 7.848 6.42857 6.42857 6.42857C5.00914 6.42857 3.85714 5.27657 3.85714 3.85714C3.85714 2.43771 5.00914 1.28571 6.42857 1.28571Z" fill="#2D2D2D"/>
<path fill-rule="evenodd" clip-rule="evenodd" d="M19.0445 15.5891C19.0445 15.8553 18.8285 16.0713 18.5624 16.0713H11.5713V15.107H18.0802V12.2141C18.0802 11.5748 17.8261 10.9615 17.3744 10.5093C16.9221 10.0575 16.3088 9.80343 15.6695 9.80343H12.7766C12.1373 9.80343 11.524 10.0575 11.0718 10.5093C10.9817 10.5995 10.8995 10.696 10.8256 10.798C10.7639 10.724 10.6987 10.6525 10.6301 10.5839C10.4681 10.422 10.2906 10.2792 10.1011 10.1569C10.1897 10.0416 10.2861 9.93152 10.39 9.82754C11.0231 9.19449 11.8818 8.83915 12.7766 8.83915H15.6695C16.5644 8.83915 17.423 9.19449 18.0561 9.82754C18.6887 10.4606 19.0445 11.3188 19.0445 12.2141V15.5891ZM11.3302 5.46415C11.3302 3.86777 12.6267 2.57129 14.2231 2.57129C15.8194 2.57129 17.1159 3.86777 17.1159 5.46415C17.1159 7.06052 15.8194 8.357 14.2231 8.357C12.6267 8.357 11.3302 7.06052 11.3302 5.46415ZM16.1516 5.46415C16.1516 4.39957 15.2876 3.53557 14.2231 3.53557C13.1585 3.53557 12.2945 4.39957 12.2945 5.46415C12.2945 6.52872 13.1585 7.39272 14.2231 7.39272C15.2876 7.39272 16.1516 6.52872 16.1516 5.46415Z" fill="#2D2D2D"/>
</svg>
