<svg width="20" height="18" viewBox="0 0 20 18" fill="none" xmlns="http://www.w3.org/2000/svg">
<path d="M4.5 8.48242H8.35742C9.51734 8.4825 10.6306 8.94313 11.4512 9.76367C12.271 10.5843 12.7324 11.697 12.7324 12.8574V17.3574C12.7323 17.6431 12.4996 17.875 12.2139 17.875H0.642578C0.356977 17.8748 0.125151 17.643 0.125 17.3574V12.8574C0.125 11.7694 0.530546 10.7236 1.25684 9.9209L1.40625 9.76367C2.22686 8.94306 3.33998 8.48242 4.5 8.48242ZM4.5 9.51758C3.61455 9.51758 2.76506 9.86956 2.13867 10.4951V10.4961C1.51298 11.1225 1.16113 11.9719 1.16113 12.8574V16.8389H11.6963V12.8574C11.6963 12.0727 11.4202 11.3157 10.9219 10.7178C10.8579 10.641 10.7899 10.5673 10.7188 10.4961V10.4951L10.5898 10.373C10.4577 10.2544 10.3167 10.1471 10.1689 10.0518C9.63317 9.70598 9.00492 9.51763 8.35742 9.51758H4.5ZM6.42871 0.125C8.48811 0.125076 10.1611 1.798 10.1611 3.85742C10.161 5.91671 8.48802 7.58879 6.42871 7.58887C4.36934 7.58887 2.69644 5.91676 2.69629 3.85742C2.69629 1.79796 4.36925 0.125 6.42871 0.125ZM6.42871 1.16113C4.94025 1.16113 3.73242 2.36896 3.73242 3.85742C3.73257 5.34576 4.94034 6.55371 6.42871 6.55371C7.91702 6.55364 9.12485 5.34571 9.125 3.85742C9.125 2.369 7.91711 1.16121 6.42871 1.16113Z" fill="#0B57D0" stroke="#0B57D0" stroke-width="0.25"/>
<path d="M12.7769 8.96387H15.6694C16.5311 8.96387 17.3577 9.30653 17.9673 9.91602C18.5764 10.5256 18.9194 11.3518 18.9194 12.2139V15.5889C18.9194 15.786 18.7591 15.9463 18.562 15.9463H11.6958V15.2324H18.2056V12.2139C18.2055 11.6257 18.0006 11.0586 17.6313 10.6074L17.4624 10.4209C16.9867 9.94582 16.3419 9.67871 15.6694 9.67871H12.7769C12.1045 9.67871 11.4595 9.94587 10.9839 10.4209H10.9829C10.9245 10.4794 10.8699 10.5411 10.8179 10.6045C10.7848 10.5683 10.7531 10.53 10.7183 10.4951C10.5832 10.3603 10.4376 10.2385 10.2837 10.1299C10.3452 10.0562 10.4096 9.98447 10.478 9.91602C11.0876 9.30642 11.9151 8.96387 12.7769 8.96387ZM14.2231 2.69629C15.7504 2.69633 16.9906 3.93668 16.9907 5.46387C16.9907 6.99118 15.7504 8.23238 14.2231 8.23242C12.6958 8.23242 11.4556 6.99121 11.4556 5.46387C11.4557 3.93666 12.6959 2.69629 14.2231 2.69629ZM14.2231 3.41016C13.0896 3.41016 12.1696 4.33039 12.1694 5.46387C12.1694 6.59747 13.0895 7.51758 14.2231 7.51758C15.3567 7.51753 16.2769 6.59745 16.2769 5.46387C16.2767 4.33041 15.3566 3.4102 14.2231 3.41016Z" fill="#0B57D0" stroke="#0B57D0" stroke-width="0.25"/>
</svg>
