<svg width="17" height="16" viewBox="0 0 17 16" fill="none" xmlns="http://www.w3.org/2000/svg">
<path d="M16.2578 0.100586C16.5704 0.100747 16.8646 0.267527 17.0117 0.561523C17.1588 0.855774 17.1164 1.19212 16.9287 1.44238L16.9268 1.44434L10.4473 9.59863V13.2031C10.4472 13.5864 10.2653 13.9485 9.94531 14.1885L9.94238 14.1904L7.89258 15.6123L7.8916 15.6113C7.74258 15.7174 7.57438 15.7598 7.41016 15.7598C7.26025 15.7597 7.13383 15.7158 7.01465 15.6562L7.01172 15.6553C6.74006 15.5089 6.57136 15.2354 6.57129 14.9209V9.61816L0.0732422 1.44434L0.0712891 1.44238C-0.11636 1.19212 -0.158842 0.85577 -0.0117188 0.561523L-0.0107422 0.55957C0.134679 0.289503 0.425997 0.100774 0.742188 0.100586H16.2578ZM2.56445 3.05566H9.79297C10.0512 3.0557 10.2625 3.2662 10.2627 3.52441C10.2627 3.78279 10.0513 3.9941 9.79297 3.99414H3.2959L7.33203 9.06641C7.44889 9.14639 7.51074 9.28704 7.51074 9.43555V14.7295L9.40332 13.416C9.46853 13.3613 9.5078 13.2811 9.50781 13.1846V9.43555C9.50781 9.31555 9.55632 9.22173 9.59863 9.1582L9.60352 9.15137L16.0498 1.03906H0.950195L2.56445 3.05566Z" fill="#2D2D2D" stroke="#2D2D2D" stroke-width="0.2"/>
</svg>
