<svg width="19" height="19" viewBox="0 0 19 19" fill="none" xmlns="http://www.w3.org/2000/svg">
<path d="M15.31 11.6433C15.1491 11.8256 14.9347 11.9167 14.6667 11.9167C14.4201 11.9167 14.2057 11.8256 14.0234 11.6433C13.8411 11.461 13.75 11.2466 13.75 11C13.75 10.732 13.8411 10.5176 14.0234 10.3567L15.2617 9.11845C15.6799 8.70027 15.9907 8.24468 16.1945 7.75143C16.3982 7.24756 16.5 6.69542 16.5 6.09503C16.5 5.2695 16.3178 4.53509 15.9532 3.89181C15.5886 3.24854 15.0848 2.74464 14.4415 2.38012C13.7982 2.01559 13.0639 1.83333 12.2383 1.83333C11.6379 1.83333 11.0858 1.93518 10.5819 2.13889C10.0886 2.34259 9.63307 2.65351 9.21488 3.07164L7.97665 4.30994C7.81578 4.49221 7.60137 4.58333 7.33333 4.58333C7.08674 4.58333 6.87232 4.49221 6.69006 4.30994C6.5078 4.12768 6.41667 3.91326 6.41667 3.66667C6.41667 3.39863 6.5078 3.18421 6.69006 3.0234L7.92834 1.78509C8.49658 1.21687 9.15594 0.777287 9.90642 0.466372C10.6569 0.155457 11.4342 0 12.2383 0C13.3426 0 14.3611 0.273396 15.2939 0.820178C16.2374 1.35624 16.9771 2.096 17.5132 3.03947C18.06 3.97222 18.3333 4.99074 18.3333 6.09503C18.3333 6.89913 18.1779 7.67644 17.8669 8.42692C17.556 9.17739 17.1165 9.83675 16.5482 10.405L15.31 11.6433ZM10.3567 14.0234C10.5283 13.8411 10.7427 13.75 11 13.75C11.2573 13.75 11.4717 13.8411 11.6433 14.0234C11.8256 14.195 11.9167 14.4094 11.9167 14.6667C11.9167 14.924 11.8256 15.1384 11.6433 15.31L10.405 16.5482C9.83675 17.1165 9.17739 17.556 8.42692 17.8669C7.68717 18.1779 6.90984 18.3333 6.09503 18.3333C4.99074 18.3333 3.97222 18.06 3.03947 17.5132C2.10673 16.9664 1.36696 16.2267 0.820178 15.2939C0.273396 14.3611 0 13.3426 0 12.2383C0 11.4235 0.155457 10.6462 0.466372 9.90642C0.777287 9.15594 1.21687 8.49658 1.78509 7.92834L3.0234 6.69006C3.19493 6.5078 3.40936 6.41667 3.66667 6.41667C3.92397 6.41667 4.1384 6.5078 4.30994 6.69006C4.4922 6.8616 4.58333 7.07603 4.58333 7.33333C4.58333 7.59064 4.4922 7.80505 4.30994 7.97665L3.07164 9.21488C2.66423 9.63307 2.35331 10.0941 2.13889 10.598C1.93518 11.0911 1.83333 11.6379 1.83333 12.2383C1.83333 13.0532 2.01559 13.7875 2.38012 14.4415C2.74464 15.0848 3.24854 15.5886 3.89181 15.9532C4.54581 16.3178 5.28021 16.5 6.09503 16.5C6.69542 16.5 7.2422 16.3982 7.73538 16.1945C8.23927 15.98 8.70027 15.6691 9.11845 15.2617L10.3567 14.0234ZM7.05994 12.56C6.89913 12.7422 6.6847 12.8333 6.41667 12.8333C6.17007 12.8333 5.95566 12.7422 5.7734 12.56C5.59114 12.3777 5.5 12.1632 5.5 11.9167C5.5 11.6486 5.59114 11.4342 5.7734 11.2733L11.2733 5.7734C11.445 5.59113 11.6594 5.5 11.9167 5.5C12.174 5.5 12.3884 5.59113 12.56 5.7734C12.7422 5.94493 12.8333 6.15936 12.8333 6.41667C12.8333 6.67397 12.7422 6.8884 12.56 7.05994L7.05994 12.56Z" fill="#0B57D0" fill-opacity="0.5"/>
</svg>
