<svg width="28" height="28" viewBox="0 0 28 28" fill="none" xmlns="http://www.w3.org/2000/svg">
<path d="M20.1851 18.6205C19.7322 18.6205 19.3648 18.9878 19.3648 19.4408V22.7509C19.3648 22.9272 19.2159 23.076 19.0397 23.076H6.4863C6.30994 23.076 6.16113 22.9271 6.16113 22.7509V5.24938C6.16113 5.07312 6.31005 4.92432 6.4863 4.92432H19.0395C19.2159 4.92432 19.3647 5.07318 19.3647 5.24938V8.55945C19.3647 9.01248 19.732 9.37976 20.185 9.37976C20.6381 9.37976 21.0053 9.01248 21.0053 8.55945V5.24938C21.0053 4.16547 20.1235 3.28369 19.0395 3.28369H6.4863C5.40234 3.28369 4.52051 4.16553 4.52051 5.24938V22.7509C4.52051 23.8348 5.40234 24.7166 6.4863 24.7166H19.0395C20.1235 24.7166 21.0053 23.8348 21.0053 22.7509V19.4408C21.0055 18.9878 20.6382 18.6205 20.1851 18.6205Z" fill="#2D2D2D"/>
<path d="M19.6174 17.0424C19.7776 17.2025 19.9876 17.2827 20.1975 17.2827C20.4073 17.2827 20.6173 17.2025 20.7774 17.0424C20.7774 17.0424 23.1754 14.6444 23.4215 14.3983C23.6631 14.1568 23.6639 13.8448 23.4555 13.6365C23.2472 13.4281 20.7775 10.958 20.7775 10.958C20.4573 10.6377 19.9378 10.6376 19.6174 10.958C19.297 11.2784 19.297 11.7977 19.6173 12.1181L20.6792 13.1801H12.7632C12.3102 13.1801 11.9429 13.5474 11.9429 14.0004C11.9429 14.4535 12.3102 14.8207 12.7632 14.8207H20.679L19.6174 15.8823C19.297 16.2027 19.297 16.722 19.6174 17.0424Z" fill="#2D2D2D"/>
</svg>
