<svg width="25" height="28" viewBox="0 0 25 28" fill="none" xmlns="http://www.w3.org/2000/svg">
<path d="M24.8297 22.8444L22.8063 20.1524C22.1509 19.2805 21.8457 18.3776 21.8457 17.3112V11.6422C21.8457 7.58963 18.8598 4.17473 14.8304 3.20747C14.9452 2.93945 15.009 2.64747 15.009 2.34166C15.009 1.05044 13.8834 0 12.5 0C11.1166 0 9.99104 1.05044 9.99104 2.34166C9.99104 2.64747 10.0548 2.93945 10.1696 3.20747C6.14018 4.17473 3.15429 7.58963 3.15429 11.6422V17.3112C3.15429 18.3776 2.84904 19.2805 2.19371 20.1524L0.170324 22.8444C-0.0304323 23.1115 -0.055651 23.4612 0.104942 23.7512C0.265594 24.0412 0.585322 24.2232 0.934004 24.2232H9.05743C9.02771 24.3949 9.01248 24.5698 9.01248 24.7469C9.01248 26.5407 10.577 28 12.5 28C14.423 28 15.9875 26.5407 15.9875 24.7469C15.9875 24.5698 15.9723 24.395 15.9426 24.2232H24.066C24.4147 24.2232 24.7344 24.0412 24.8951 23.7512C25.0557 23.4612 25.0304 23.1115 24.8297 22.8444ZM11.8591 2.34166C11.8591 2.01545 12.1466 1.75 12.5 1.75C12.8534 1.75 13.1409 2.01545 13.1409 2.34166C13.1409 2.66792 12.8534 2.93338 12.5 2.93338C12.1466 2.93338 11.8591 2.66798 11.8591 2.34166ZM14.1195 24.7468C14.1195 25.5757 13.393 26.25 12.5 26.25C11.607 26.25 10.8805 25.5757 10.8805 24.7468C10.8805 24.5654 10.916 24.3891 10.9826 24.2231H14.0174C14.084 24.3892 14.1195 24.5655 14.1195 24.7468ZM2.73404 22.4731L3.72107 21.1599C4.59671 19.995 5.02234 18.7361 5.02234 17.3112V11.6422C5.02234 7.80504 8.37682 4.68337 12.5 4.68337C16.6232 4.68337 19.9777 7.8051 19.9777 11.6422V17.3112C19.9777 18.7361 20.4033 19.995 21.2789 21.1599L22.266 22.4731H2.73404Z" fill="#0B57D0"/>
</svg>
