<svg width="18" height="18" viewBox="0 0 18 18" fill="none" xmlns="http://www.w3.org/2000/svg">
<g clip-path="url(#clip0_205_2906)">
<path d="M9 0C4.02954 0 0 4.02954 0 9C0 13.9705 4.02954 18 9 18C13.9705 18 18 13.9705 18 9C18 4.02954 13.9705 0 9 0ZM9 16.5C4.85796 16.5 1.50001 13.142 1.50001 9C1.50001 4.85796 4.85796 1.50001 9 1.50001C13.142 1.50001 16.5 4.85796 16.5 9C16.5 13.142 13.142 16.5 9 16.5Z" fill="#2D2D2D"/>
<path d="M13.5 8.25H9.75011V4.49999C9.75011 4.08578 9.41433 3.75 9.00012 3.75C8.58591 3.75 8.25013 4.08578 8.25013 4.49999V8.25H4.50145C4.08724 8.25 3.75146 8.58578 3.75146 8.99999C3.75146 9.4142 4.08724 9.74998 4.50145 9.74998H8.25009V13.5C8.25009 13.9142 8.58587 14.25 9.00008 14.25C9.41429 14.25 9.75007 13.9142 9.75007 13.5V9.74998H13.4999C13.9141 9.74998 14.2499 9.4142 14.2499 8.99999C14.2499 8.58578 13.9142 8.25 13.5 8.25Z" fill="#2D2D2D"/>
</g>
<defs>
<clipPath id="clip0_205_2906">
<rect width="18" height="18" fill="white"/>
</clipPath>
</defs>
</svg>
