<svg width="20" height="18" viewBox="0 0 20 18" fill="none" xmlns="http://www.w3.org/2000/svg">
<path d="M0 1.61719C0 0.730425 0.730424 0 1.61719 0H6.50314C6.98299 0 7.43859 0.213565 7.74551 0.581878L8.89523 1.96182C8.99798 2.08512 9.14927 2.15625 9.30936 2.15625H16.3516C17.2383 2.15625 17.9688 2.88667 17.9688 3.77344C17.9791 4.50242 16.8803 4.50242 16.8906 3.77344C16.8906 3.46934 16.6557 3.23438 16.3516 3.23438H9.30936C8.82951 3.23438 8.37391 3.02081 8.06699 2.6525L6.91727 1.27255C6.81452 1.14926 6.66323 1.07813 6.50314 1.07813H1.61719C1.31309 1.07813 1.07812 1.31309 1.07812 1.61719V14.9141C1.07812 15.6151 1.63488 16.1719 2.33594 16.1719C3.04209 16.1719 3.59375 15.6202 3.59375 14.9141V6.64844C3.59375 5.76167 4.32417 5.03125 5.21094 5.03125H17.7891C18.6758 5.03125 19.4062 5.76167 19.4062 6.64844V14.9141C19.4062 16.1978 18.354 17.25 17.0703 17.25H8.80469C8.07571 17.2603 8.07571 16.1616 8.80469 16.1719H17.0703C17.7714 16.1719 18.3281 15.6151 18.3281 14.9141V6.64844C18.3281 6.34434 18.0932 6.10938 17.7891 6.10938H5.21094C4.90684 6.10938 4.67188 6.34434 4.67188 6.64844V14.9141C4.67188 15.3871 4.49418 15.803 4.25003 16.1719H7.00781C7.73679 16.1616 7.73679 17.2603 7.00781 17.25C5.44421 17.25 2.31628 17.2493 2.31628 17.2493C0.788818 17.233 0 16.1912 0 14.9141V1.61719Z" fill="#2D2D2D"/>
</svg>
