<svg width="20" height="18" viewBox="0 0 20 18" fill="none" xmlns="http://www.w3.org/2000/svg">
<path d="M6.75293 0.125L6.94531 0.135742C7.39016 0.18516 7.80242 0.404703 8.0918 0.751953L9.24121 2.13184C9.32033 2.22678 9.43678 2.28125 9.55957 2.28125H16.6016C17.5567 2.28125 18.3427 3.06657 18.3438 4.02148L18.3408 4.10059C18.3257 4.28007 18.2502 4.4244 18.1367 4.52637C18.0095 4.64072 17.8424 4.69531 17.6797 4.69531C17.5169 4.69531 17.3499 4.64072 17.2227 4.52637C17.0934 4.41017 17.013 4.23897 17.0156 4.02344C17.0156 3.78837 16.8366 3.60938 16.6016 3.60938H9.55957C9.04261 3.60938 8.55137 3.37922 8.2207 2.98242L7.07129 1.60254C6.99217 1.50759 6.87572 1.45312 6.75293 1.45312H1.86719C1.63212 1.45312 1.45313 1.63212 1.45312 1.86719V15.1641C1.45312 15.7961 1.95392 16.2969 2.58594 16.2969C3.22305 16.2969 3.71875 15.8012 3.71875 15.1641V6.89844C3.71875 5.94264 4.50514 5.15625 5.46094 5.15625H18.0391C18.9949 5.15625 19.7812 5.94264 19.7812 6.89844V15.1641C19.7812 16.5168 18.6731 17.625 17.3203 17.625H9.05469V17.624C8.83915 17.6266 8.66796 17.5472 8.55176 17.418C8.4374 17.2907 8.38281 17.1237 8.38281 16.9609C8.38281 16.7982 8.4374 16.6312 8.55176 16.5039C8.66795 16.3746 8.83916 16.2943 9.05469 16.2969H17.3203C17.9523 16.2969 18.4531 15.7961 18.4531 15.1641V6.89844C18.4531 6.66337 18.2741 6.48438 18.0391 6.48438H5.46094C5.22587 6.48438 5.04688 6.66337 5.04688 6.89844V15.1641C5.04688 15.5864 4.91334 15.9622 4.72266 16.2969H7.25781C7.47334 16.2943 7.64455 16.3746 7.76074 16.5039C7.8751 16.6312 7.92969 16.7982 7.92969 16.9609C7.92969 17.1237 7.8751 17.2907 7.76074 17.418C7.64454 17.5472 7.47335 17.6266 7.25781 17.624V17.625C6.476 17.625 5.30263 17.6252 4.3252 17.625C3.83667 17.6249 3.39667 17.6241 3.0791 17.624H2.56543C1.77193 17.6155 1.15769 17.3395 0.743164 16.8887C0.330189 16.4394 0.125 15.8277 0.125 15.1641V1.86719C0.125 0.911389 0.911389 0.125 1.86719 0.125H6.75293Z" fill="#0B57D0" stroke="#0B57D0" stroke-width="0.25"/>
</svg>
