<svg width="17" height="17" viewBox="0 0 17 17" fill="none" xmlns="http://www.w3.org/2000/svg">
<path d="M15.2572 1.64833C13.0511 -0.549444 9.46137 -0.549444 7.25524 1.64833C6.18515 2.71447 5.59585 4.13213 5.59585 5.64037C5.59585 6.54654 5.80884 7.41996 6.21075 8.20423L0.623783 13.249C0.619645 13.2528 0.615507 13.2566 0.611498 13.2605C0.200273 13.6579 -0.0286163 14.1913 -0.0331424 14.7627C-0.0374098 15.334 0.183203 15.871 0.58835 16.2745C0.988325 16.673 1.51852 16.8918 2.08298 16.8918H2.0998C2.67047 16.8873 3.20377 16.6599 3.60141 16.2513C3.60529 16.2473 3.60917 16.2433 3.61292 16.2391L8.6825 10.6667C9.48801 11.0758 10.372 11.2809 11.2563 11.2809C12.7051 11.2809 14.1541 10.7314 15.2572 9.63242C16.3273 8.56641 16.9166 7.14874 16.9166 5.6405C16.9166 4.13213 16.3273 2.71447 15.2572 1.64833ZM2.88617 15.5589C2.67538 15.7726 2.39373 15.8914 2.09217 15.8937C2.08919 15.8937 2.08622 15.8937 2.08324 15.8937C1.78245 15.8937 1.50016 15.7775 1.28756 15.5657C1.07406 15.353 0.957806 15.0706 0.960005 14.7704C0.962332 14.4727 1.08104 14.1942 1.29442 13.9853L6.75116 9.05802C6.90505 9.2588 7.07303 9.45087 7.25537 9.63242C7.43654 9.81305 7.62728 9.97848 7.82565 10.1294L2.88617 15.5589ZM14.558 8.92365C12.7373 10.7374 9.77509 10.7374 7.95445 8.92365C7.07394 8.04646 6.589 6.88039 6.589 5.64037C6.589 4.40049 7.07394 3.23441 7.95445 2.3571C8.8647 1.45028 10.0605 0.996874 11.2561 0.996874C12.4519 0.996874 13.6477 1.45028 14.558 2.3571C15.4385 3.23441 15.9234 4.40036 15.9234 5.6405C15.9234 6.88039 15.4385 8.04646 14.558 8.92365Z" fill="#2D2D2D" fill-opacity="0.5"/>
</svg>
